<svg preserveAspectRatio="none" width="100%" height="100%" overflow="visible" style="display: block;" viewBox="0 0 14 15" fill="none" xmlns="http://www.w3.org/2000/svg">
<path fill-rule="evenodd" clip-rule="evenodd" d="M6.66667 0C7.03486 0 7.33333 0.298477 7.33333 0.666667V0.694544C8.44737 0.806504 9.51915 1.19775 10.4473 1.83675C11.0871 2.27727 11.6413 2.82358 12.0883 3.44835L12.1359 3.42117C12.4556 3.2385 12.8628 3.34956 13.0455 3.66924C13.2281 3.98892 13.1171 4.39616 12.7974 4.57883L12.7519 4.60483C12.8025 4.71798 12.8501 4.83274 12.8945 4.94899C13.3763 6.21027 13.4637 7.58812 13.1453 8.90019C13.0482 9.29998 12.9149 9.68792 12.7479 10.0596L12.7974 10.0878C13.1171 10.2705 13.2281 10.6777 13.0455 10.9974C12.8628 11.3171 12.4556 11.4282 12.1359 11.2455L12.0827 11.2151C11.8007 11.608 11.4754 11.971 11.1111 12.2968C10.8367 12.5423 10.4152 12.5188 10.1698 12.2444C9.9243 11.9699 9.94779 11.5485 10.2222 11.303C10.4789 11.0735 10.7113 10.8208 10.9173 10.5491L9.80254 9.91216C9.48286 9.72949 9.3718 9.32225 9.55447 9.00257C9.73715 8.6829 10.1444 8.57183 10.4641 8.7545L11.5834 9.39415C11.6931 9.13334 11.7822 8.86309 11.8495 8.58571C12.1043 7.53605 12.0343 6.43378 11.6489 5.42475C11.6291 5.37292 11.6085 5.32145 11.5872 5.27038L10.4641 5.91216C10.1444 6.09484 9.73715 5.98377 9.55447 5.66409C9.3718 5.34441 9.48286 4.93718 9.80254 4.7545L10.9231 4.11419C10.5803 3.66013 10.1651 3.26127 9.69114 2.93496C8.98575 2.4493 8.17663 2.14254 7.33333 2.03629V3.33333C7.33333 3.70152 7.03486 4 6.66667 4C6.29848 4 6 3.70152 6 3.33333V2.03629C5.1567 2.14254 4.34758 2.4493 3.6422 2.93496C3.16826 3.26127 2.75306 3.66013 2.41024 4.11419L3.53079 4.7545C3.85047 4.93718 3.96154 5.34441 3.77886 5.66409C3.59619 5.98377 3.18895 6.09484 2.86927 5.91216L1.74615 5.27038C1.7248 5.32145 1.70421 5.37292 1.68442 5.42475C1.299 6.43378 1.22904 7.53605 1.4838 8.58571C1.55112 8.86309 1.64028 9.13334 1.74989 9.39415L2.86927 8.7545C3.18895 8.57183 3.59619 8.6829 3.77886 9.00257C3.96154 9.32225 3.85047 9.72949 3.53079 9.91216L2.41608 10.5491C2.622 10.8208 2.85448 11.0735 3.11111 11.303C3.38555 11.5485 3.40903 11.9699 3.16357 12.2444C2.91811 12.5188 2.49666 12.5423 2.22222 12.2968C1.85797 11.971 1.53262 11.608 1.25064 11.2151L1.19746 11.2455C0.87778 11.4282 0.470544 11.3171 0.287871 10.9974C0.105197 10.6777 0.216262 10.2705 0.53594 10.0878L0.585395 10.0596C0.418439 9.68792 0.285117 9.29998 0.188086 8.90019C-0.130363 7.58812 -0.0429169 6.21027 0.438853 4.94899C0.483256 4.83274 0.530817 4.71798 0.581446 4.60483L0.53594 4.57883C0.216262 4.39616 0.105197 3.98892 0.287871 3.66924C0.470544 3.34956 0.87778 3.2385 1.19746 3.42117L1.24502 3.44835C1.69207 2.82358 2.24626 2.27727 2.88608 1.83675C3.81419 1.19775 4.88596 0.806504 6 0.694545V0.666667C6 0.298477 6.29848 0 6.66667 0ZM6.66667 6.66667C6.29848 6.66667 6 6.96514 6 7.33333C6 7.70152 6.29848 8 6.66667 8C7.03486 8 7.33333 7.70152 7.33333 7.33333C7.33333 6.96514 7.03486 6.66667 6.66667 6.66667ZM4.66667 7.33333C4.66667 6.22876 5.5621 5.33333 6.66667 5.33333C7.77124 5.33333 8.66667 6.22876 8.66667 7.33333C8.66667 8.12023 8.21222 8.80098 7.55147 9.12747L9.12867 13.3333H9.33333C9.70152 13.3333 10 13.6318 10 14C10 14.3682 9.70152 14.6667 9.33333 14.6667H8.68223C8.6719 14.6669 8.66159 14.6669 8.65131 14.6667H4.68203C4.67175 14.6669 4.66144 14.6669 4.65111 14.6667H4C3.63181 14.6667 3.33333 14.3682 3.33333 14C3.33333 13.6318 3.63181 13.3333 4 13.3333H4.20467L5.78187 9.12747C5.12111 8.80098 4.66667 8.12023 4.66667 7.33333ZM6.66667 10.5653L5.62867 13.3333H7.70467L6.66667 10.5653Z" fill="currentColor"/>
</svg>
