<svg preserveAspectRatio="none" width="100%" height="100%" overflow="visible" style="display: block;" viewBox="0 0 21 24" fill="none" xmlns="http://www.w3.org/2000/svg">
<g id="Group">
<path id="Vector" fill-rule="evenodd" clip-rule="evenodd" d="M6.04194 1.14441e-05C2.70675 1.14441e-05 -6.10352e-05 2.70683 -6.10352e-05 6.04201C-6.10352e-05 9.37719 2.70675 12.084 6.04194 12.084C9.37712 12.084 12.0839 9.37719 12.0839 6.04201C12.0839 2.70683 9.37712 1.14441e-05 6.04194 1.14441e-05ZM3.5679 7.35217L4.8399 8.62417C5.03324 8.81752 5.29782 8.918 5.57003 8.90274C5.84096 8.8862 6.09409 8.75646 6.262 8.54276L8.69787 5.47216C9.02478 5.05876 8.95482 4.45837 8.54269 4.13147C8.13056 3.80456 7.52891 3.87325 7.202 4.28665L5.43265 6.51901L4.91749 6.00385C4.54479 5.63116 3.9406 5.63116 3.5679 6.00385C3.19648 6.37528 3.19648 6.98075 3.5679 7.35217Z" fill="var(--fill-0, #22C55E)"/>
<path id="Vector_2" d="M19.5914 12.5895H18.8864C18.4214 11.1645 17.5114 9.89952 16.2964 8.91952C16.2964 8.87452 16.2864 8.82452 16.2764 8.77952C16.0214 7.88452 16.3364 7.06952 16.7014 6.48452C16.9564 6.07452 16.6264 5.54952 16.1464 5.60952C15.0714 5.74452 14.3314 6.13952 13.8214 6.58452C13.4714 6.88952 13.2214 7.29952 13.1114 7.75452C12.3414 10.9445 9.4664 13.3195 6.0414 13.3195C4.3764 13.3195 2.8464 12.7595 1.6214 11.8195C1.1964 12.7395 0.966397 13.7445 0.966397 14.7995C0.966397 15.3695 1.0364 15.9245 1.1664 16.4595C1.1664 16.4595 1.1664 16.4695 1.1714 16.4845C1.3064 17.0395 1.5114 17.5745 1.7714 18.0795C2.1164 18.8245 2.6164 19.6945 3.3064 20.3995C4.3014 21.4245 4.4714 22.6945 4.4964 23.2445V23.4795C4.4964 23.4895 4.4964 23.4995 4.4964 23.5095C4.4964 23.5145 4.4964 23.5145 4.4964 23.5145C4.5164 23.7845 4.7414 23.9995 5.0164 23.9995H8.1764C8.4614 23.9995 8.6964 23.7695 8.6964 23.4795V22.6995C9.1564 22.7595 9.6264 22.7945 10.1014 22.7945C10.4764 22.7945 10.8414 22.7745 11.2064 22.7345V23.4795C11.2064 23.7645 11.4364 23.9995 11.7264 23.9995H14.8964C15.1814 23.9995 15.4164 23.7695 15.4164 23.4795V22.6995C15.4214 22.4395 15.5114 21.4045 16.4914 20.5195C16.5264 20.4895 16.5614 20.4595 16.5964 20.4295C16.6064 20.4195 16.6164 20.4145 16.6264 20.4045C17.7164 19.4345 18.5214 18.2245 18.9364 16.8745H19.6014C20.1314 16.8745 20.5614 16.4445 20.5614 15.9145V13.5495C20.5514 13.0195 20.1214 12.5895 19.5914 12.5895ZM15.6364 12.7595C15.2014 12.7595 14.8514 12.4095 14.8514 11.9745C14.8514 11.5395 15.2014 11.1895 15.6364 11.1895C16.0714 11.1895 16.4214 11.5395 16.4214 11.9745C16.4214 12.4095 16.0714 12.7595 15.6364 12.7595Z" fill="var(--fill-0, #22C55E)"/>
</g>
</svg>
