<svg width="24" height="24" viewBox="0 0 24 24" fill="none" xmlns="http://www.w3.org/2000/svg">
  <g>
    <path d="M22 13.2V11.1C22 7.44952 22 5.62428 20.7206 4.50254C19.4412 3.38081 17.4068 3.38081 13.338 3.38081C9.26925 3.38081 7.23487 3.38081 5.95543 4.50254C4.676 5.62428 4.676 7.44952 4.676 11.1V13.2C4.676 16.8505 4.676 18.6757 5.95543 19.7975C7.23487 20.9192 9.26925 20.9192 13.338 20.9192C17.4068 20.9192 19.4412 20.9192 20.7206 19.7975C22 18.6757 22 16.8505 22 13.2Z" stroke="#71717A" stroke-width="1.5"/>
    <path d="M18.5 8.5H14.5M16.5 6.5V10.5" stroke="#71717A" stroke-width="1.5" stroke-linecap="round" stroke-linejoin="round"/>
    <path d="M18.5 18H14.5" stroke="#71717A" stroke-width="1.5" stroke-linecap="round" stroke-linejoin="round"/>
    <path d="M18.5 15H14.5" stroke="#71717A" stroke-width="1.5" stroke-linecap="round" stroke-linejoin="round"/>
    <path d="M10.5 18L8.75 16.25M8.75 16.25L7 14.5M8.75 16.25L10.5 14.5M8.75 16.25L7 18" stroke="#71717A" stroke-width="1.5" stroke-linecap="round" stroke-linejoin="round"/>
    <path d="M10.5 8.5H6.5" stroke="#71717A" stroke-width="1.5" stroke-linecap="round" stroke-linejoin="round"/>
  </g>
</svg>
