<svg preserveAspectRatio="none" width="100%" height="100%" overflow="visible" style="display: block;" viewBox="0 0 21 22" fill="none" xmlns="http://www.w3.org/2000/svg">
<path id="Vector (Stroke)" d="M19 15C19 12.2386 16.7614 10 14 10C11.2386 10 9 12.2386 9 15C9 17.7614 11.2386 20 14 20C16.7614 20 19 17.7614 19 15ZM13 15.2998V13C13 12.4477 13.4477 12 14 12C14.5523 12 15 12.4477 15 13V14.8193L16.125 15.7188C16.5563 16.0638 16.6263 16.6937 16.2812 17.125C15.9362 17.5563 15.3063 17.6263 14.875 17.2812L13.375 16.0811C13.1378 15.8913 13 15.6035 13 15.2998ZM18 6.5V5C18 4.73478 17.8946 4.48051 17.707 4.29297C17.5195 4.10543 17.2652 4 17 4H15V5C15 5.55228 14.5523 6 14 6C13.4477 6 13 5.55228 13 5V4H7V5C7 5.55228 6.55228 6 6 6C5.44772 6 5 5.55228 5 5V4H3C2.73478 4 2.4805 4.10543 2.29297 4.29297C2.10543 4.4805 2 4.73478 2 5V8H6C6.55228 8 7 8.44772 7 9C7 9.55229 6.55228 10 6 10H2V19C2 19.2652 2.10543 19.5195 2.29297 19.707C2.48051 19.8946 2.73478 20 3 20H6.5C7.05228 20 7.5 20.4477 7.5 21C7.5 21.5523 7.05228 22 6.5 22H3C2.20435 22 1.44152 21.6837 0.878906 21.1211C0.316297 20.5585 0 19.7957 0 19V5C0 4.20435 0.316297 3.44152 0.878906 2.87891C1.44152 2.3163 2.20435 2 3 2H5V1C5 0.447715 5.44772 0 6 0C6.55228 0 7 0.447715 7 1V2H13V1C13 0.447715 13.4477 0 14 0C14.5523 0 15 0.447715 15 1V2H17C17.7957 2 18.5585 2.3163 19.1211 2.87891C19.6837 3.44152 20 4.20435 20 5V6.5C20 7.05228 19.5523 7.5 19 7.5C18.4477 7.5 18 7.05228 18 6.5ZM21 15C21 18.866 17.866 22 14 22C10.134 22 7 18.866 7 15C7 11.134 10.134 8 14 8C17.866 8 21 11.134 21 15Z" fill="var(--fill-0, #98383A)"/>
</svg>
