<svg preserveAspectRatio="none" width="100%" height="100%" overflow="visible" style="display: block;" viewBox="0 0 17 19" fill="none" xmlns="http://www.w3.org/2000/svg">
<path id="Vector (Stroke)" fill-rule="evenodd" clip-rule="evenodd" d="M5 0C5.46024 0 5.83333 0.373096 5.83333 0.833333V1.66667H10.8333V0.833333C10.8333 0.373096 11.2064 0 11.6667 0C12.1269 0 12.5 0.373096 12.5 0.833333V1.66667H14.1667C15.5474 1.66667 16.6667 2.78595 16.6667 4.16667V15.8333C16.6667 17.214 15.5474 18.3333 14.1667 18.3333H2.5C1.11929 18.3333 0 17.214 0 15.8333V4.16667C0 2.78595 1.11929 1.66667 2.5 1.66667H4.16667V0.833333C4.16667 0.373096 4.53976 0 5 0ZM4.16667 3.33333H2.5C2.03976 3.33333 1.66667 3.70643 1.66667 4.16667V6.66667H15V4.16667C15 3.70643 14.6269 3.33333 14.1667 3.33333H12.5V4.16667C12.5 4.6269 12.1269 5 11.6667 5C11.2064 5 10.8333 4.6269 10.8333 4.16667V3.33333H5.83333V4.16667C5.83333 4.6269 5.46024 5 5 5C4.53976 5 4.16667 4.6269 4.16667 4.16667V3.33333ZM15 8.33333H1.66667V15.8333C1.66667 16.2936 2.03976 16.6667 2.5 16.6667H14.1667C14.6269 16.6667 15 16.2936 15 15.8333V8.33333Z" fill="var(--fill-0, #6B7280)"/>
</svg>
