<svg preserveAspectRatio="none" width="100%" height="100%" overflow="visible" style="display: block;" viewBox="0 0 24 24" fill="none" xmlns="http://www.w3.org/2000/svg">
<g id="Group">
<path id="Vector" d="M20.4853 3.51469C18.2188 1.24819 15.2053 0 12 0C8.79469 0 5.78119 1.24819 3.51469 3.51469C1.24819 5.78119 0 8.79469 0 12C0 15.2053 1.24823 18.2188 3.51469 20.4853C5.78114 22.7519 8.79469 24 12 24C15.2053 24 18.2188 22.7518 20.4853 20.4853C22.7518 18.2188 24 15.2053 24 12C24 8.79469 22.7518 5.78123 20.4853 3.51469ZM12 11.25C13.861 11.25 15.375 12.764 15.375 14.625C15.375 16.1661 14.3364 17.4684 12.9226 17.8708C12.821 17.8997 12.75 17.991 12.75 18.0967V18.7288C12.75 19.1327 12.4396 19.4802 12.0362 19.4992C11.6055 19.5194 11.25 19.1762 11.25 18.75V18.0965C11.25 17.9912 11.1794 17.8998 11.0781 17.871C9.67036 17.4706 8.63442 16.1782 8.62505 14.646C8.62256 14.237 8.94412 13.887 9.35297 13.8753C9.77723 13.8631 10.125 14.2035 10.125 14.625C10.125 15.7032 11.0399 16.5718 12.134 16.4953C13.0576 16.4308 13.8058 15.6825 13.8703 14.7589C13.9467 13.6647 13.0782 12.75 12 12.75C10.139 12.75 8.625 11.236 8.625 9.375C8.625 7.83389 9.66361 6.53161 11.0774 6.12923C11.179 6.10031 11.25 6.00895 11.25 5.90334V5.27119C11.25 4.86731 11.5604 4.51983 11.9638 4.50084C12.3945 4.48059 12.75 4.82377 12.75 5.25V5.90348C12.75 6.00881 12.8206 6.10022 12.9219 6.12905C14.3296 6.52936 15.3656 7.82184 15.375 9.35405C15.3774 9.76303 15.0559 10.113 14.647 10.1247C14.2228 10.1369 13.875 9.79655 13.875 9.375C13.875 8.29678 12.9601 7.42819 11.866 7.50469C10.9424 7.56923 10.1942 8.31745 10.1297 9.24108C10.0533 10.3353 10.9218 11.25 12 11.25Z" fill="var(--fill-0, #C55822)"/>
</g>
</svg>
