<svg preserveAspectRatio="none" width="100%" height="100%" overflow="visible" style="display: block;" viewBox="0 0 20 24" fill="none" xmlns="http://www.w3.org/2000/svg">
<g id="Group">
<path id="Vector" d="M3.30965 9.891V5.2136L4.21867 6.12267L5.21301 5.12829L2.60654 2.52182L3.18444e-05 5.12829L0.994366 6.12267L1.90344 5.2136V9.891H3.30965Z" fill="var(--fill-0, #98383A)"/>
<path id="Vector_2" d="M17.3722 5.2136L18.2812 6.12267L19.2755 5.12829L16.669 2.52182L14.0625 5.12829L15.0569 6.12267L15.9659 5.2136V9.891H17.3722V5.2136Z" fill="var(--fill-0, #98383A)"/>
<path id="Vector_3" d="M10.3409 7.07855V2.69178L11.2499 3.60085L12.2443 2.60647L9.63779 0L7.03128 2.60647L8.02562 3.60085L8.93469 2.69178V7.07855H10.3409Z" fill="var(--fill-0, #98383A)"/>
<path id="Vector_4" d="M9.63789 18.3283C9.25019 18.3283 8.93478 18.0129 8.93478 17.6252H7.52856C7.52856 18.5418 8.11641 19.3233 8.93478 19.6135V21.1876H10.341V19.6135C11.1594 19.3233 11.7472 18.5418 11.7472 17.6252C11.7472 16.4621 10.801 15.5158 9.63789 15.5158C9.25019 15.5158 8.93478 15.2004 8.93478 14.8127C8.93478 14.425 9.25019 14.1096 9.63789 14.1096C10.0256 14.1096 10.341 14.425 10.341 14.8127H11.7472C11.7472 13.8961 11.1594 13.1146 10.341 12.8243V11.2972H8.93478V12.8243C8.11641 13.1146 7.52856 13.8961 7.52856 14.8127C7.52856 15.9758 8.47481 16.9221 9.63789 16.9221C10.0256 16.9221 10.341 17.2375 10.341 17.6252C10.341 18.0129 10.0256 18.3283 9.63789 18.3283Z" fill="var(--fill-0, #98383A)"/>
<path id="Vector_5" d="M9.63774 24C13.9035 24 17.3719 20.491 17.3719 16.2189C17.3719 11.9543 13.9024 8.48476 9.63774 8.48476C5.37312 8.48476 1.90356 11.9543 1.90356 16.2189C1.90356 20.485 5.3666 24 9.63774 24ZM9.63774 9.89097C13.127 9.89097 15.9657 12.7297 15.9657 16.2189C15.9657 19.7341 13.127 22.5938 9.63774 22.5938C6.1485 22.5938 3.30978 19.7341 3.30978 16.2189C3.30978 12.7297 6.14846 9.89097 9.63774 9.89097Z" fill="var(--fill-0, #98383A)"/>
</g>
</svg>
