<svg preserveAspectRatio="none" width="100%" height="100%" overflow="visible" style="display: block;" viewBox="0 0 23 21" fill="none" xmlns="http://www.w3.org/2000/svg">
<g id="Group 2">
<path id="path841" d="M10.1875 0C4.56834 0 0 4.56834 0 10.1875C0 15.8067 4.56834 20.375 10.1875 20.375C11.6079 20.375 13.0123 20.0776 14.311 19.5027C14.3872 19.4721 14.4565 19.4266 14.5147 19.3687C14.5729 19.3108 14.6188 19.2418 14.6498 19.1657C14.6807 19.0897 14.696 19.0082 14.6948 18.9261C14.6936 18.8441 14.6758 18.7631 14.6426 18.688C14.6094 18.6129 14.5614 18.5453 14.5015 18.4892C14.4416 18.4331 14.371 18.3896 14.294 18.3613C14.2169 18.3331 14.1349 18.3206 14.0529 18.3247C13.971 18.3289 13.8907 18.3494 13.8168 18.3852C12.6738 18.8912 11.4374 19.1525 10.1875 19.1525C5.22903 19.1525 1.2225 15.146 1.2225 10.1875C1.2225 5.22903 5.22903 1.2225 10.1875 1.2225C14.1862 1.2225 17.6959 3.86412 18.8023 7.70668C18.8235 7.78493 18.8601 7.85818 18.9099 7.92216C18.9597 7.98613 19.0217 8.03957 19.0924 8.07934C19.163 8.11912 19.2409 8.14445 19.3214 8.15385C19.4019 8.16325 19.4835 8.15654 19.5614 8.1341C19.6394 8.11167 19.712 8.07396 19.7752 8.02318C19.8384 7.97239 19.8909 7.90954 19.9296 7.83828C19.9682 7.76703 19.9924 7.68879 20.0005 7.60813C20.0087 7.52746 20.0007 7.44598 19.977 7.36843C18.7214 3.00753 14.7256 0 10.1875 0Z" fill="var(--fill-0, #389398)"/>
<path id="rect1002" d="M16.0965 8.9649C16.0155 8.96376 15.9351 8.97872 15.8599 9.00893C15.7848 9.03913 15.7164 9.08397 15.6587 9.14085C15.601 9.19772 15.5552 9.26549 15.5239 9.34022C15.4927 9.41495 15.4766 9.49515 15.4766 9.57615C15.4766 9.65716 15.4927 9.73736 15.5239 9.81209C15.5552 9.88682 15.601 9.95459 15.6587 10.0115C15.7164 10.0683 15.7848 10.1132 15.8599 10.1434C15.9351 10.1736 16.0155 10.1886 16.0965 10.1874H20.7828V11.7434C20.7828 12.2102 20.574 12.5658 20.1484 12.9643C19.8008 13.2898 19.2718 13.6072 18.7453 13.9289C18.2187 13.6072 17.6897 13.2898 17.3421 12.9643C16.9166 12.5658 16.7078 12.2102 16.7078 11.7434C16.7089 11.6624 16.6939 11.582 16.6637 11.5068C16.6335 11.4316 16.5887 11.3632 16.5318 11.3055C16.475 11.2479 16.4072 11.2021 16.3325 11.1708C16.2577 11.1395 16.1775 11.1234 16.0965 11.1234C16.0155 11.1234 15.9353 11.1395 15.8606 11.1708C15.7859 11.2021 15.7181 11.2479 15.6612 11.3055C15.6043 11.3632 15.5595 11.4316 15.5293 11.5068C15.4991 11.582 15.4841 11.6624 15.4853 11.7434C15.4853 12.6138 15.9387 13.3248 16.5064 13.8565C16.8516 14.1797 17.2733 14.4125 17.6764 14.6699C17.2733 14.9273 16.8516 15.1601 16.5064 15.4833C15.9387 16.015 15.4853 16.726 15.4853 17.5964V19.7637C15.4853 19.9258 15.5497 20.0812 15.6643 20.1959C15.7789 20.3105 15.9344 20.3749 16.0965 20.3749H21.394C21.475 20.376 21.5554 20.3611 21.6306 20.3309C21.7058 20.3007 21.7742 20.2558 21.8319 20.199C21.8895 20.1421 21.9353 20.0743 21.9666 19.9996C21.9979 19.9249 22.014 19.8447 22.014 19.7637C22.014 19.6826 21.9979 19.6024 21.9666 19.5277C21.9353 19.453 21.8895 19.3852 21.8319 19.3283C21.7742 19.2715 21.7058 19.2266 21.6306 19.1964C21.5554 19.1662 21.475 19.1513 21.394 19.1524H16.7078V17.5964C16.7078 17.1297 16.9166 16.774 17.3421 16.3755C17.6897 16.05 18.2187 15.7326 18.7453 15.4109C19.2718 15.7326 19.8008 16.05 20.1484 16.3755C20.574 16.774 20.7828 17.1297 20.7828 17.5964C20.7816 17.6774 20.7966 17.7578 20.8268 17.833C20.857 17.9082 20.9018 17.9766 20.9587 18.0343C21.0156 18.0919 21.0834 18.1377 21.1581 18.169C21.2328 18.2003 21.313 18.2164 21.394 18.2164C21.475 18.2164 21.5552 18.2003 21.63 18.169C21.7047 18.1377 21.7725 18.0919 21.8293 18.0343C21.8862 17.9766 21.931 17.9082 21.9612 17.833C21.9914 17.7578 22.0064 17.6774 22.0053 17.5964C22.0053 16.726 21.5519 16.015 20.9841 15.4833C20.639 15.1601 20.2173 14.9273 19.8142 14.6699C20.2173 14.4125 20.639 14.1797 20.9841 13.8565C21.5519 13.3248 22.0053 12.6138 22.0053 11.7434V9.57615C22.0052 9.41405 21.9408 9.25858 21.8262 9.14395C21.7116 9.02933 21.5561 8.96492 21.394 8.9649H16.0965Z" fill="var(--fill-0, #389398)"/>
<path id="path837-3" d="M10.1785 4.88996C10.0982 4.8911 10.019 4.90805 9.94524 4.93983C9.87152 4.97161 9.80478 5.0176 9.74884 5.07518C9.69289 5.13275 9.64883 5.20078 9.61918 5.27538C9.58952 5.34998 9.57485 5.42969 9.576 5.50996V5.7352C8.54473 5.90226 7.74225 6.79201 7.74225 7.86423V8.63864C7.74225 9.82949 8.73145 10.7987 9.9254 10.7987H10.4491C10.9966 10.7987 11.4097 11.2106 11.4097 11.7355V12.5099C11.4097 13.0348 10.9966 13.4475 10.4491 13.4475H9.9254C9.37787 13.4475 8.96475 13.0348 8.96475 12.5099C8.96589 12.4289 8.95093 12.3485 8.92073 12.2733C8.89052 12.1981 8.84568 12.1297 8.78881 12.072C8.73193 12.0144 8.66416 11.9686 8.58943 11.9373C8.5147 11.906 8.4345 11.8899 8.3535 11.8899C8.27249 11.8899 8.19229 11.906 8.11757 11.9373C8.04284 11.9686 7.97507 12.0144 7.91819 12.072C7.86132 12.1297 7.81648 12.1981 7.78627 12.2733C7.75607 12.3485 7.7411 12.4289 7.74225 12.5099C7.74225 13.5821 8.54473 14.4725 9.576 14.6397V14.8649C9.57485 14.9459 9.58982 15.0264 9.62002 15.1015C9.65023 15.1767 9.69507 15.2451 9.75194 15.3028C9.80881 15.3605 9.87658 15.4063 9.95131 15.4375C10.026 15.4688 10.1062 15.4849 10.1872 15.4849C10.2683 15.4849 10.3485 15.4688 10.4232 15.4375C10.4979 15.4063 10.5657 15.3605 10.6226 15.3028C10.6794 15.2451 10.7243 15.1767 10.7545 15.1015C10.7847 15.0264 10.7996 14.9459 10.7985 14.8649V14.6397C11.8298 14.4725 12.6322 13.5821 12.6322 12.5099V11.7355C12.6322 10.5446 11.643 9.5762 10.4491 9.5762H9.9254C9.37787 9.5762 8.96475 9.16352 8.96475 8.63864V7.86423C8.96475 7.33934 9.37787 6.92745 9.9254 6.92745H10.4491C10.9966 6.92745 11.4097 7.33934 11.4097 7.86423C11.4086 7.94522 11.4236 8.02564 11.4538 8.10081C11.484 8.17597 11.5288 8.24438 11.5857 8.30206C11.6426 8.35975 11.7103 8.40555 11.7851 8.43682C11.8598 8.46808 11.94 8.48418 12.021 8.48418C12.102 8.48418 12.1822 8.46808 12.2569 8.43682C12.3317 8.40555 12.3994 8.35975 12.4563 8.30206C12.5132 8.24438 12.558 8.17597 12.5882 8.10081C12.6184 8.02564 12.6334 7.94522 12.6322 7.86423C12.6322 6.79201 11.8298 5.90226 10.7985 5.7352V5.50996C10.7997 5.42822 10.7844 5.34707 10.7537 5.27132C10.7229 5.19556 10.6773 5.12675 10.6195 5.06894C10.5617 5.01113 10.4929 4.96551 10.4171 4.93476C10.3414 4.90402 10.2602 4.88878 10.1785 4.88996Z" fill="var(--fill-0, #389398)"/>
</g>
</svg>
