<svg preserveAspectRatio="none" width="100%" height="100%" overflow="visible" style="display: block;" viewBox="0 0 24 24" fill="none" xmlns="http://www.w3.org/2000/svg">
<g id="piggy-bank 1">
<path id="Vector" d="M18.0929 10.374C19.0382 10.7265 19.8794 11.3116 20.5387 12.0752C21.1979 12.8389 21.654 13.7565 21.8647 14.7431C22.0753 15.7297 22.0338 16.7535 21.744 17.7199C21.4541 18.6862 20.9253 19.5638 20.2064 20.2716C19.4874 20.9794 18.6017 21.4945 17.6309 21.7693C16.6602 22.044 15.6358 22.0695 14.6526 21.8435C13.6694 21.6174 12.759 21.1471 12.0058 20.476C11.2525 19.8049 10.6806 18.9547 10.3429 18.004M7.00293 6.00403H8.00293V10.004M16.7129 13.884L17.4129 14.594L14.5929 17.414M14.0029 8.00403C14.0029 11.3177 11.3166 14.004 8.00293 14.004C4.68922 14.004 2.00293 11.3177 2.00293 8.00403C2.00293 4.69032 4.68922 2.00403 8.00293 2.00403C11.3166 2.00403 14.0029 4.69032 14.0029 8.00403Z" stroke="var(--stroke-0, #2A9D90)" stroke-width="2" stroke-linecap="round" stroke-linejoin="round"/>
</g>
</svg>
