<svg preserveAspectRatio="none" width="100%" height="100%" overflow="visible" style="display: block;" viewBox="0 0 19 22" fill="none" xmlns="http://www.w3.org/2000/svg">
<g id="Group">
<path id="Vector" d="M18.5417 2.74286C18.5417 1.23047 17.3116 0 15.7989 0H6.19888C4.68616 0 3.45603 1.23047 3.45603 2.74286V4.82746H2.74286C1.23013 4.82746 0 6.05759 0 7.56998V19.2271C0 20.7398 1.23013 21.97 2.74286 21.97H10.9714C12.4842 21.97 13.7143 20.7398 13.7143 19.2271V18.5146H15.7989C17.3116 18.5146 18.5417 17.2845 18.5417 15.7718V2.74286ZM12.3429 19.2271C12.3429 19.9831 11.7275 20.5985 10.9714 20.5985H2.74286C1.98683 20.5985 1.37143 19.9831 1.37143 19.2271V7.56998C1.37143 6.81395 1.98683 6.19888 2.74286 6.19888H10.9714C11.7275 6.19888 12.3429 6.81395 12.3429 7.56998V19.2271ZM17.1703 15.7718C17.1703 16.5278 16.5549 17.1432 15.7989 17.1432H13.7143V7.56998C13.7143 6.05759 12.4842 4.82746 10.9714 4.82746H4.82746V2.74286C4.82746 1.9865 5.44286 1.37143 6.19888 1.37143H15.7989C16.5549 1.37143 17.1703 1.9865 17.1703 2.74286V15.7718Z" fill="var(--fill-0, #2E4CAC)"/>
<path id="Vector_2" d="M6.85727 14.4271C7.23629 14.4271 7.54298 14.1204 7.54298 13.7414V10.3128C7.54298 9.93381 7.23629 9.62712 6.85727 9.62712C6.47825 9.62712 6.17155 9.93381 6.17155 10.3128V13.7414C6.17155 14.1204 6.47825 14.4271 6.85727 14.4271Z" fill="var(--fill-0, #2E4CAC)"/>
<path id="Vector_3" d="M6.37194 16.3403C6.11337 16.5989 6.0998 17.0432 6.37194 17.3139C6.68942 17.6003 7.10873 17.5572 7.33824 17.3139C7.61343 17.0402 7.61304 16.6151 7.33824 16.3403C7.06442 16.0665 6.62218 16.09 6.37194 16.3403Z" fill="var(--fill-0, #2E4CAC)"/>
</g>
</svg>
