<svg preserveAspectRatio="none" width="100%" height="100%" overflow="visible" style="display: block;" viewBox="0 0 21 24" fill="none" xmlns="http://www.w3.org/2000/svg">
<g id="Group">
<path id="Vector" d="M6.04 12.085C9.375 12.085 12.08 9.38 12.08 6.045C12.08 2.71 9.375 0 6.04 0C2.705 0 0 2.705 0 6.04C0 9.375 2.705 12.085 6.04 12.085ZM3.93 8.43C3.985 8.23 4.04 8.035 4.1 7.835C4.17 7.605 4.235 7.58 4.445 7.69C4.805 7.875 5.185 7.98 5.585 8.03C5.84 8.06 6.095 8.035 6.33 7.93C6.775 7.735 6.845 7.22 6.47 6.91C6.34 6.805 6.195 6.725 6.045 6.66C5.655 6.49 5.25 6.36 4.88 6.14C4.285 5.785 3.905 5.29 3.95 4.565C4 3.745 4.465 3.23 5.215 2.96C5.525 2.845 5.525 2.85 5.53 2.525C5.53 2.415 5.53 2.305 5.53 2.195C5.535 1.95 5.58 1.91 5.82 1.9C5.895 1.9 5.97 1.9 6.045 1.9C6.565 1.9 6.565 1.9 6.565 2.42C6.565 2.785 6.565 2.79 6.93 2.845C7.21 2.89 7.475 2.97 7.735 3.085C7.88 3.15 7.93 3.25 7.89 3.4C7.825 3.625 7.765 3.85 7.69 4.07C7.62 4.28 7.555 4.31 7.355 4.215C6.95 4.02 6.525 3.935 6.075 3.96C5.955 3.965 5.845 3.98 5.735 4.03C5.35 4.2 5.285 4.625 5.615 4.89C5.78 5.025 5.97 5.12 6.17 5.2C6.51 5.34 6.855 5.48 7.185 5.66C8.22 6.235 8.5 7.535 7.77 8.42C7.505 8.74 7.165 8.955 6.76 9.065C6.585 9.115 6.505 9.205 6.515 9.385C6.525 9.565 6.515 9.74 6.515 9.92C6.515 10.08 6.435 10.165 6.275 10.17C6.085 10.175 5.89 10.175 5.7 10.17C5.53 10.165 5.45 10.07 5.45 9.905C5.45 9.775 5.45 9.645 5.445 9.515C5.44 9.23 5.435 9.215 5.155 9.17C4.8 9.115 4.455 9.035 4.13 8.875C3.885 8.76 3.86 8.695 3.93 8.43Z" fill="var(--fill-0, #9122C5)"/>
<path id="Vector_2" d="M19.5894 12.59H18.8844C18.4194 11.165 17.5094 9.90001 16.2944 8.92001C16.2944 8.87501 16.2844 8.82501 16.2744 8.78001C16.0194 7.88501 16.3344 7.07001 16.6994 6.48501C16.9544 6.07501 16.6244 5.55001 16.1444 5.61001C15.0694 5.74501 14.3294 6.14001 13.8194 6.58501C13.4694 6.89001 13.2194 7.30001 13.1094 7.75501C12.3394 10.945 9.46444 13.32 6.03944 13.32C4.37444 13.32 2.84444 12.76 1.61944 11.82C1.19444 12.74 0.964444 13.745 0.964444 14.8C0.964444 15.37 1.03444 15.925 1.16444 16.46C1.16444 16.46 1.16444 16.47 1.16944 16.485C1.30444 17.04 1.50944 17.575 1.76944 18.08C2.11444 18.825 2.61444 19.695 3.30444 20.4C4.29944 21.425 4.46944 22.695 4.49444 23.245V23.48C4.49444 23.49 4.49444 23.5 4.49444 23.51C4.49444 23.515 4.49444 23.515 4.49444 23.515C4.51444 23.785 4.73944 24 5.01444 24H8.17444C8.45944 24 8.69445 23.77 8.69445 23.48V22.7C9.15445 22.76 9.62444 22.795 10.0994 22.795C10.4744 22.795 10.8394 22.775 11.2044 22.735V23.48C11.2044 23.765 11.4344 24 11.7244 24H14.8944C15.1794 24 15.4144 23.77 15.4144 23.48V22.7C15.4194 22.44 15.5094 21.405 16.4894 20.52C16.5244 20.49 16.5594 20.46 16.5944 20.43C16.6044 20.42 16.6144 20.415 16.6244 20.405C17.7144 19.435 18.5194 18.225 18.9344 16.875H19.5994C20.1294 16.875 20.5594 16.445 20.5594 15.915V13.55C20.5494 13.02 20.1194 12.59 19.5894 12.59ZM15.6344 12.76C15.1994 12.76 14.8494 12.41 14.8494 11.975C14.8494 11.54 15.1994 11.19 15.6344 11.19C16.0694 11.19 16.4194 11.54 16.4194 11.975C16.4194 12.41 16.0694 12.76 15.6344 12.76Z" fill="var(--fill-0, #9122C5)"/>
</g>
</svg>
