<svg preserveAspectRatio="none" width="100%" height="100%" overflow="visible" style="display: block;" viewBox="0 0 22 19" fill="none" xmlns="http://www.w3.org/2000/svg">
<g id="Group">
<path id="Vector" d="M13.25 6.49998H0.75C0.34 6.49998 0 6.15998 0 5.74998C0 5.33998 0.34 4.99998 0.75 4.99998H13.25C13.66 4.99998 14 5.33998 14 5.74998C14 6.15998 13.66 6.49998 13.25 6.49998Z" fill="var(--fill-0, #763898)"/>
<path id="Vector_2" d="M6.75 14.5H4.75C4.34 14.5 4 14.16 4 13.75C4 13.34 4.34 13 4.75 13H6.75C7.16 13 7.5 13.34 7.5 13.75C7.5 14.16 7.16 14.5 6.75 14.5Z" fill="var(--fill-0, #763898)"/>
<path id="Vector_3" d="M13.25 14.5H9.25001C8.84001 14.5 8.5 14.16 8.5 13.75C8.5 13.34 8.84001 13 9.25001 13H13.25C13.66 13 14 13.34 14 13.75C14 14.16 13.66 14.5 13.25 14.5Z" fill="var(--fill-0, #763898)"/>
<path id="Vector_4" d="M16.31 18.5H5.19C1.21 18.5 0 17.3 0 13.36V5.13999C0 1.19999 1.21 -7.62939e-06 5.19 -7.62939e-06H13.25C13.66 -7.62939e-06 14 0.339992 14 0.749992C14 1.15999 13.66 1.49999 13.25 1.49999H5.19C2.05 1.49999 1.5 2.03999 1.5 5.13999V13.35C1.5 16.45 2.05 16.99 5.19 16.99H16.3C19.44 16.99 19.99 16.45 19.99 13.35V11.27C19.99 10.86 20.33 10.52 20.74 10.52C21.15 10.52 21.49 10.86 21.49 11.27V13.35C21.5 17.3 20.29 18.5 16.31 18.5Z" fill="var(--fill-0, #763898)"/>
<path id="Vector_5" d="M18.75 7.49999C18.65 7.49999 18.56 7.47999 18.46 7.43999C18.18 7.31999 18 7.04999 18 6.74999V0.749992C18 0.339992 18.34 -7.62939e-06 18.75 -7.62939e-06C19.16 -7.62939e-06 19.5 0.339992 19.5 0.749992V4.93999L20.22 4.21999C20.51 3.92999 20.99 3.92999 21.28 4.21999C21.57 4.50999 21.57 4.98999 21.28 5.27999L19.28 7.27999C19.14 7.41999 18.95 7.49999 18.75 7.49999Z" fill="var(--fill-0, #763898)"/>
<path id="Vector_6" d="M18.7498 7.49989C18.5598 7.49989 18.3698 7.42989 18.2198 7.27989L16.2198 5.27993C15.9298 4.98993 15.9298 4.50993 16.2198 4.21993C16.5098 3.92993 16.9898 3.92993 17.2798 4.21993L19.2798 6.21993C19.5698 6.50993 19.5698 6.98993 19.2798 7.27989C19.1298 7.42989 18.9398 7.49989 18.7498 7.49989Z" fill="var(--fill-0, #763898)"/>
</g>
</svg>
