<svg preserveAspectRatio="none" width="100%" height="100%" overflow="visible" style="display: block;" viewBox="0 0 24 24" fill="none" xmlns="http://www.w3.org/2000/svg">
<g id="shield-trust (1) 2" clip-path="url(#clip0_0_4)">
<path id="Vector" d="M23.1257 9.86801L20.9747 7.71401V5.99601C20.9747 4.34501 19.6327 3.00101 17.9837 3.00101H16.2677L14.1167 0.848006C12.9857 -0.282994 11.0157 -0.282994 9.8857 0.848006L7.7347 3.00101H6.0187C4.3687 3.00101 3.0277 4.34401 3.0277 5.99601V7.71401L0.875703 9.86801C-0.289297 11.036 -0.289297 12.935 0.875703 14.103L3.0267 16.257V17.975C3.0267 19.626 4.3687 20.97 6.0177 20.97H7.7337L9.8847 23.123C10.4497 23.688 11.2017 24 12.0007 24C12.7997 24 13.5507 23.688 14.1157 23.123L16.2667 20.97H17.9827C19.6327 20.97 20.9737 19.627 20.9737 17.975V16.257L23.1257 14.103C24.2907 12.935 24.2907 11.036 23.1257 9.86801ZM18.2037 10.211L13.1497 15.206C12.5357 15.816 11.7267 16.122 10.9187 16.122C10.1107 16.122 9.3057 15.817 8.6897 15.209L6.0907 12.71C5.6987 12.321 5.6947 11.689 6.0837 11.296C6.4737 10.905 7.1047 10.9 7.4987 11.289L10.0967 13.787C10.5497 14.236 11.2867 14.237 11.7407 13.787L16.7957 8.79101C17.1897 8.40101 17.8217 8.40501 18.2107 8.79801C18.5997 9.19101 18.5957 9.82201 18.2037 10.211Z" fill="var(--fill-0, #C522C0)"/>
</g>
<defs>
<clipPath id="clip0_0_4">
<rect width="24" height="24" fill="white"/>
</clipPath>
</defs>
</svg>
