<svg preserveAspectRatio="none" width="100%" height="100%" overflow="visible" style="display: block;" viewBox="0 0 9 9" fill="none" xmlns="http://www.w3.org/2000/svg">
<g id="wrench-simple 1" clip-path="url(#clip0_0_4)">
<path id="Vector" d="M5.625 9C5.41762 9 5.25 8.83238 5.25 8.625V8.10075C5.25 7.53638 5.55188 7.03088 6.0375 6.78225C7.17075 6.201 7.875 5.04975 7.875 3.77738C7.875 2.48175 7.152 1.32112 5.98875 0.748125L6 3C6 3.82725 5.32725 4.5 4.5 4.5C3.67275 4.5 3 3.82725 3 3V0.7545C1.848 1.32112 1.125 2.48175 1.125 3.77738C1.125 5.04975 1.82925 6.201 2.9625 6.78225C3.44812 7.03088 3.75 7.53638 3.75 8.10075V8.625C3.75 8.83238 3.58237 9 3.375 9C3.16762 9 3 8.83238 3 8.625V8.10075C3 7.82363 2.85112 7.56788 2.6205 7.44975C1.23562 6.7395 0.375 5.3325 0.375 3.77775C0.375 2.1945 1.25812 0.7755 2.67975 0.0749999C2.9085 -0.0375001 3.17512 -0.0236251 3.39262 0.112875C3.6165 0.252 3.75 0.492 3.75 0.7545V3C3.75 3.41363 4.08637 3.75 4.5 3.75C4.91362 3.75 5.25 3.41363 5.25 3V0.7545C5.25 0.492 5.3835 0.252 5.60737 0.112875C5.82525 -0.0228751 6.09225 -0.0367501 6.31988 0.0749999C7.7415 0.7755 8.62463 2.19412 8.62463 3.77738C8.62463 5.33213 7.764 6.73913 6.37912 7.44938C6.14887 7.5675 5.99962 7.82325 5.99962 8.10038V8.62463C5.99962 8.832 5.832 8.99963 5.62462 8.99963L5.625 9Z" fill="var(--fill-0, black)"/>
</g>
<defs>
<clipPath id="clip0_0_4">
<rect width="9" height="9" fill="white"/>
</clipPath>
</defs>
</svg>
